Coordinates
version=1
nRows=14
nColumns=36
inDegrees=yes

Units are S.I. units (second, meters, Newtons, ...)
If the header above contains a line with 'inDegrees', this indicates whether rotational values are in degrees (yes) or radians (no).

endheader
time	pelvis_tilt	pelvis_list	pelvis_rotation	pelvis_tx	pelvis_ty	pelvis_tz	hip_flexion_r	hip_adduction_r	hip_rotation_r	knee_angle_r	knee_angle_r_beta	ankle_angle_r	subtalar_angle_r	mtp_angle_r	hip_flexion_l	hip_adduction_l	hip_rotation_l	knee_angle_l	knee_angle_l_beta	ankle_angle_l	subtalar_angle_l	mtp_angle_l	lumbar_extension	lumbar_bending	lumbar_rotation	arm_flex_r	arm_add_r	arm_rot_r	elbow_flex_r	pro_sup_r	arm_flex_l	arm_add_l	arm_rot_l	elbow_flex_l	pro_sup_l
     45.00000000	     -7.60788931	      4.53881666	     -3.47861481	      0.83911217	      1.02155121	      0.82917185	     22.27740316	     -4.88125086	      6.92795009	     61.22315693	      1.06854567	     -4.10418970	    -17.01896840	     -7.49999987	     19.29446925	      2.87406422	     -9.70367030	     22.32192572	      0.38959110	     10.66035292	     -0.73820753	     -7.49999987	     -0.48870598	     -1.64508506	      4.75073462	      0.76947945	     -9.03664368	     -1.61602333	     13.23972109	     70.43238788	      5.07997485	     -7.21288832	     -2.81765803	     23.45303224	     68.27734416
     45.01666670	     -7.38850914	      4.24361321	     -3.29844347	      0.83801696	      1.02222819	      0.82821798	     24.17780798	     -4.67743690	      6.56734110	     61.26334976	      1.06924716	     -0.69698962	    -17.12771915	     -7.49999987	     17.60427058	      2.87193836	     -9.28133264	     21.34935478	      0.37261653	     11.20104770	     -0.45975204	     -7.49999987	     -1.04641269	     -1.26784416	      4.01252164	      0.49046329	     -8.99655157	     -2.10988576	     13.12580945	     70.06545791	      5.57820188	     -7.39608523	     -3.10905646	     25.11890742	     68.03879890
     45.03333330	     -7.12804116	      3.81345204	     -2.99461000	      0.83568134	      1.02362286	      0.82655871	     25.76622735	     -4.42935963	      6.02355031	     60.54366234	      1.05668625	      1.62597683	    -16.89349504	     -7.49999987	     15.91040138	      2.75177947	     -8.77581381	     20.27138659	      0.35380244	     11.91582897	      0.11527167	     -7.49999987	     -1.67426476	     -0.73894066	      3.17571629	      0.36867440	     -8.97740600	     -2.60868077	     13.07459453	     69.83453631	      6.26997210	     -7.63154089	     -3.26904302	     26.70511715	     67.93246394
     45.05000000	     -6.92175013	      3.33069990	     -2.67049703	      0.83281476	      1.02528810	      0.82453679	     27.05736801	     -4.16567667	      5.43098918	     58.92065480	      1.02835942	      3.15056143	    -16.48456718	     -7.49999987	     14.34454200	      2.53382295	     -8.37556664	     19.21518272	      0.33536820	     12.70376380	      0.85815550	     -7.49999987	     -2.28841403	     -0.18646556	      2.35702115	      0.34896085	     -9.00359719	     -3.08624683	     13.30232012	     69.76522438	      6.95462377	     -7.90557124	     -3.35817742	     28.42339307	     67.95597586
     45.06666670	     -6.76858478	      2.78523818	     -2.35572136	      0.83088011	      1.02629094	      0.82278220	     27.96648825	     -3.87878586	      4.74886793	     56.36672922	      0.98378501	      4.34219105	    -16.01218665	     -7.49999987	     12.90886839	      2.21849407	     -8.10352789	     18.24327197	      0.31840516	     13.35172197	      1.66344204	     -7.49999987	     -2.77826281	      0.46104888	      1.59941390	      0.39478137	     -9.05262535	     -3.56896165	     13.46996876	     69.79878867	      7.62237110	     -8.06425766	     -3.37204943	     29.96853326	     68.08794062
     45.08333330	     -6.71671482	      2.24856951	     -2.09314071	      0.83039554	      1.02671256	      0.82165011	     28.56084691	     -3.61718861	      3.98082995	     52.92682441	      0.92374735	      5.20965223	    -15.57076719	     -7.49999987	     11.65879915	      1.88080426	     -7.93499153	     17.41527490	      0.30395389	     13.78068638	      2.43574542	     -7.49999987	     -3.11184946	      1.11293544	      0.88338563	      0.38717243	     -9.14423406	     -3.86742047	     13.89598868	     69.98687029	      8.11582385	     -8.21995838	     -3.23284293	     31.50967082	     68.32819037
     45.10000000	     -6.99338993	      1.86748011	     -1.86078355	      0.83068621	      1.02699891	      0.82087187	     29.19836791	     -3.48690638	      3.21681739	     48.84674460	      0.85253652	      5.76991265	    -15.21321544	     -7.49999987	     10.78749952	      1.68089112	     -7.82839036	     16.63802247	      0.29038827	     13.85311241	      2.88122334	     -7.49999987	     -2.76904785	      1.51880097	      0.60470057	      0.29384985	     -9.21073752	     -3.94270832	     13.70927916	     70.08517795	      8.79598747	     -8.12293053	     -3.14060729	     32.24448638	     68.44585464
     45.11666670	     -6.78289380	      1.36143298	     -1.54052965	      0.83047756	      1.02779438	      0.82030949	     29.00356979	     -3.32809179	      2.19779172	     44.11905931	      0.77002285	      6.77516022	    -14.04525628	     -7.49999987	      9.49129259	      1.34141276	     -7.57332925	     16.04234344	      0.27999171	     14.22207162	      3.47210463	     -7.49999987	     -3.26570582	      2.08560159	     -0.09853445	      0.36631425	     -9.26156059	     -4.79791815	     14.36073779	     70.20842545	      9.00254695	     -8.30093916	     -2.89056580	     34.25429808	     68.72074170
     45.13333330	     -6.78989067	      1.16017888	     -1.24912415	      0.82918115	      1.02814255	      0.82076686	     28.91982086	     -3.40059383	      1.33330253	     39.01140826	      0.68087752	      7.39941412	    -12.59159912	     -7.49999987	      8.43957753	      1.26395274	     -7.38524190	     15.39539276	      0.26870029	     14.42374990	      3.88758031	     -7.49999987	     -3.49286002	      2.26328313	     -0.50048834	      0.33910884	     -9.22201101	     -5.43417417	     14.89443677	     70.57940220	      9.32733061	     -8.45771633	     -2.69351131	     35.67599171	     68.99007864
     45.15000000	     -6.82177375	      1.18174139	     -0.94397116	      0.82696854	      1.02693151	      0.82216292	     28.78792270	     -3.68726459	      0.39153051	     33.72800159	      0.58866468	      7.68364362	    -10.68955929	     -7.49999987	      7.39577154	      1.39008540	     -7.13789429	     14.59863200	      0.25479419	     14.68644588	      4.16314705	     -7.49999987	     -3.71671421	      2.16163480	     -0.85497695	      0.37894481	     -9.07261811	     -5.90636774	     15.28729533	     71.17495821	      9.59455371	     -8.73521863	     -2.48589166	     37.02400214	     69.30966183
     45.16666670	     -6.78895784	      1.37029404	     -0.63553137	      0.82453955	      1.02523630	      0.82405318	     28.54184667	     -4.10665204	     -0.65559564	     28.50935059	      0.49758204	      7.53143921	     -8.45770835	     -7.49999987	      6.24685498	      1.65518787	     -6.95824919	     13.64332931	      0.23812102	     15.01460428	      4.42558022	     -7.49999987	     -4.03497627	      1.83326523	     -1.16588373	      0.45545663	     -8.83881079	     -6.26830041	     15.69630287	     71.89085279	      9.83437183	     -9.07852335	     -2.29316779	     38.27933592	     69.62080129
     45.18333330	     -7.23880878	      1.63261424	     -0.12252857	      0.82224251	      1.02307381	      0.82599202	     28.84015738	     -4.65031081	     -2.05130416	     23.75205756	      0.41455161	      7.32978502	     -5.84274078	     -7.49999987	      5.67202371	      2.02296317	     -6.29462310	     12.73655244	      0.22229478	     14.97669733	      3.72304032	     -7.49999987	     -3.60314037	      1.41589598	     -1.86779529	      0.55128498	     -8.46074326	     -6.59518020	     15.93068943	     71.68206518	      9.91481371	     -9.52063441	     -2.05179785	     38.89115415	     69.50934002
     45.20000000	     -6.68275018	      1.91798083	      0.18250634	      0.81911011	      1.02134891	      0.82876921	     28.17671788	     -4.98113198	     -3.11088894	     19.38125288	      0.33826668	      6.68192454	     -3.88878089	     -7.49999987	      4.10429221	      2.26398235	     -6.49234609	     11.96006788	      0.20874256	     15.55881920	      4.35562476	     -7.49999987	     -4.73232497	      0.81287271	     -1.96366871	      0.83860354	     -8.09095176	     -6.60222509	     16.23589197	     72.40926970	     10.40714428	    -10.03710382	     -1.42317585	     40.16826545	     69.90332613
     45.21666670	     -6.68971612	      2.17692439	      0.54649716	      0.81613438	      1.01774178	      0.83141166	     28.23264738	     -5.27191263	     -4.33990421	     15.55525495	      0.27149041	      6.31184780	     -1.80039646	     -7.49999987	      3.25453967	      2.48204916	     -6.36953262	     11.46729344	      0.20014203	     16.01785317	      4.31727675	     -7.49999987	     -5.04665340	      0.30705115	     -2.36031486	      1.11417044	     -7.70941895	     -6.67179639	     16.56211055	     73.35015600	     10.78111870	    -10.54160089	     -0.92639162	     40.65197926	     70.44547797
